<svg version="1.1" xmlns="http://www.w3.org/2000/svg" xmlns:xlink="http://www.w3.org/1999/xlink" width="104.33429" height="83.6816" viewBox="0,0,104.33429,83.6816"><g transform="translate(-190.5,-149.34424)"><g data-paper-data="{&quot;isPaintingLayer&quot;:true}" fill="#000000" fill-rule="nonzero" stroke="none" stroke-width="0.5" stroke-linecap="butt" stroke-linejoin="miter" stroke-miterlimit="10" stroke-dasharray="" stroke-dashoffset="0" style="mix-blend-mode: normal"><path d="M194.40625,160.04688c2.56376,-3.59048 5.90597,-6.11607 9.64567,-7.77755c3.43001,-1.76992 7.32234,-2.76932 11.44808,-2.76932c0.99141,0 1.96935,0.05771 2.93063,0.16995c2.11882,0.05563 4.22321,0.27459 6.26234,0.63008c2.64328,0.46082 6.54122,-0.9558 9.40949,-0.9558c2.46055,0 5.0251,1.14529 7.368,1.15576c3.54255,0.01584 8.16753,-0.34996 12.02954,0c3.58853,0.32518 9.52519,2.92608 12.05476,2.98333c8.82808,0.19981 20.13471,3.73153 24.90838,12.04124c1.32074,2.29907 1.97207,4.92418 3.05935,7.34243c0.33287,0.74035 1.38305,2.11312 1.30797,3.13914c-0.2475,3.38249 -0.35092,6.79884 -1.02366,10.12298c-0.99305,4.90685 -5.42123,8.40691 -7.95595,12.37537c-1.18639,1.85745 -1.79676,5.96395 -2.47584,7.4955c-0.64362,1.45157 -4.55148,6.09129 -4.875,6.5c-11.83069,14.94596 -35.83159,26.79259 -54.5,16.875c-7.34317,-3.90106 -14.17428,-11.34832 -16.8068,-19.24587c-1.17916,-3.53747 -0.60181,-10.02149 -1.6932,-12.70934c-0.52724,-0.23036 -1.045,-0.47838 -1.55253,-0.74331c-7.99191,-4.1718 -13.44747,-12.53703 -13.44747,-22.17647c0,-3.13655 0.57762,-6.13819 1.63228,-8.90435c0.44467,-1.99787 1.0954,-3.89822 2.27397,-5.54877z"></path></g></g></svg>